<svg xmlns="http://www.w3.org/2000/svg" width="1200" height="320" viewBox="0 0 1200 320" role="img" aria-labelledby="title desc">
  <title id="title">keeencra — Open Source Collection</title>
  <desc id="desc">AI tools, creative workflows and open-source exploration.</desc>
  <defs>
    <linearGradient id="bg" x1="0" y1="0" x2="1" y2="1"><stop stop-color="#0b1721"/><stop offset="1" stop-color="#173e3c"/></linearGradient>
    <linearGradient id="accent" x1="0" y1="0" x2="1" y2="0"><stop stop-color="#8de9c2"/><stop offset="1" stop-color="#93c5fd"/></linearGradient>
    <pattern id="grid" width="40" height="40" patternUnits="userSpaceOnUse"><path d="M 40 0 H 0 V 40" fill="none" stroke="#b7ffe3" stroke-opacity=".055"/></pattern>
  </defs>
  <rect width="1200" height="320" rx="20" fill="url(#bg)"/>
  <rect width="1200" height="320" rx="20" fill="url(#grid)"/>
  <circle cx="1040" cy="156" r="190" fill="none" stroke="#87d9bb" stroke-opacity=".12"/>
  <circle cx="1040" cy="156" r="140" fill="none" stroke="#87d9bb" stroke-opacity=".18"/>
  <circle cx="1040" cy="156" r="90" fill="none" stroke="#87d9bb" stroke-opacity=".26"/>
  <path d="M1017 107 L971 153 L1017 199 M1063 107 L1109 153 L1063 199" fill="none" stroke="url(#accent)" stroke-width="8" stroke-linecap="round" stroke-linejoin="round"/>
  <circle cx="1040" cy="156" r="8" fill="#8de9c2"/>
  <rect x="56" y="51" width="7" height="20" rx="3" fill="#8de9c2"/>
  <text x="78" y="67" fill="#a9c8bd" font-family="Arial, sans-serif" font-size="16" letter-spacing="4">PROJECTS &amp; OPEN SOURCE</text>
  <text x="52" y="160" fill="#f1faf6" font-family="Arial, sans-serif" font-size="80" font-weight="700" letter-spacing="-3">keeencra<tspan fill="#8de9c2">.</tspan></text>
  <text x="58" y="207" fill="#c6ddd3" font-family="Arial, sans-serif" font-size="22">AI tools. Creative workflows. Open exploration.</text>
  <path d="M58 248 H730" stroke="#d4f5e4" stroke-opacity=".16"/>
  <text x="58" y="283" fill="#8de9c2" font-family="Arial, sans-serif" font-size="13" letter-spacing="2">BUILD / CODE / DESIGN / MEDIA / WRITING / RESEARCH</text>
</svg>
